<?xml version="1.0" encoding="utf-8"?>
<!-- Generator: Adobe Illustrator 27.2.0, SVG Export Plug-In . SVG Version: 6.00 Build 0)  -->
<svg version="1.1" id="Слой_1" xmlns="http://www.w3.org/2000/svg" xmlns:xlink="http://www.w3.org/1999/xlink" x="0px" y="0px"
	 viewBox="0 0 8 11" style="enable-background:new 0 0 8 11;" xml:space="preserve">
<style type="text/css">
	.st0{fill-rule:evenodd;clip-rule:evenodd;fill:#41F6D7;}
</style>
<path class="st0" d="M1.5,10.4L4,7.9l2.5,2.5c0.3,0.3,0.7,0.3,1,0c0.3-0.3,0.3-0.7,0-1L4.7,6.6c-0.4-0.4-1-0.4-1.4,0L0.5,9.4
	c-0.3,0.3-0.3,0.7,0,1C0.8,10.7,1.2,10.7,1.5,10.4z M1.5,4.4L4,1.9l2.5,2.5c0.3,0.3,0.7,0.3,1,0c0.3-0.3,0.3-0.7,0-1L4.7,0.6
	c-0.4-0.4-1-0.4-1.4,0L0.5,3.4c-0.3,0.3-0.3,0.7,0,1C0.8,4.7,1.2,4.7,1.5,4.4z"/>
</svg>
